<?xml version="1.0" standalone="no"?>
<!DOCTYPE svg PUBLIC "-//W3C//DTD SVG 20010904//EN"
 "http://www.w3.org/TR/2001/REC-SVG-20010904/DTD/svg10.dtd">
<svg version="1.0" xmlns="http://www.w3.org/2000/svg"
 width="200.000000pt" height="200.000000pt" viewBox="0 0 200.000000 200.000000"
 preserveAspectRatio="xMidYMid meet">
<metadata>
Created by potrace 1.11, written by Peter Selinger 2001-2013
</metadata>
<g transform="translate(0.000000,200.000000) scale(0.100000,-0.100000)"
fill="#000000" stroke="none">
<path d="M1313 1860 c-41 -9 -153 -77 -153 -92 0 -3 6 -5 13 -5 151 -2 342
-67 587 -199 52 -29 97 -50 99 -48 2 2 -21 36 -51 76 -167 220 -329 308 -495
268z"/>
<path d="M344 1802 c-79 -28 -137 -66 -194 -129 -50 -55 -119 -177 -107 -190
4 -3 39 16 79 43 157 103 279 159 448 204 l105 28 -60 27 c-78 36 -195 44
-271 17z"/>
<path d="M1364 1534 c-167 -34 -279 -150 -385 -399 -32 -74 -39 -86 -45 -67
-26 89 -107 217 -179 284 -40 38 -140 86 -195 96 -205 35 -410 -123 -494 -382
-67 -205 -53 -408 41 -606 56 -115 144 -210 238 -255 81 -39 199 -45 277 -13
148 60 206 129 320 378 l16 35 12 -30 c127 -324 343 -482 578 -421 136 34 248
137 330 301 122 242 128 483 20 740 -113 266 -303 387 -534 339z m228 -59
c194 -95 312 -338 311 -640 -1 -214 -67 -398 -186 -519 -87 -88 -157 -121
-262 -121 -71 0 -88 4 -146 32 -77 38 -146 102 -200 185 -54 84 -81 159 -104
293 -7 39 -7 263 0 295 3 14 8 41 11 60 27 144 121 296 237 384 95 72 230 85
339 31z m-965 -87 c26 -12 75 -49 108 -83 278 -278 222 -884 -97 -1055 -55
-30 -72 -34 -138 -35 -60 0 -86 5 -131 26 -119 56 -216 191 -263 368 -22 81
-25 110 -22 224 5 187 45 314 138 435 104 135 269 184 405 120z"/>
<path d="M1433 978 c-35 -17 -56 -74 -56 -153 0 -125 37 -186 109 -179 67 6
94 48 99 152 6 125 -27 193 -94 191 -20 0 -46 -5 -58 -11z"/>
<path d="M737 938 c-67 -67 -51 -271 22 -296 56 -19 114 18 126 79 9 42 7 143
-3 169 -14 36 -44 60 -85 67 -29 4 -40 1 -60 -19z"/>
</g>
</svg>
